<svg id="组_3" data-name="组 3" xmlns="http://www.w3.org/2000/svg" width="472.562" height="84" viewBox="0 0 472.562 84">
  <metadata><?xpacket begin="﻿" id="W5M0MpCehiHzreSzNTczkc9d"?>
<x:xmpmeta xmlns:x="adobe:ns:meta/" x:xmptk="Adobe XMP Core 5.6-c140 79.160451, 2017/05/06-01:08:21        ">
   <rdf:RDF xmlns:rdf="http://www.w3.org/1999/02/22-rdf-syntax-ns#">
      <rdf:Description rdf:about=""/>
   </rdf:RDF>
</x:xmpmeta>
                                                                                                    
                                                                                                    
                                                                                                    
                                                                                                    
                                                                                                    
                                                                                                    
                                                                                                    
                                                                                                    
                                                                                                    
                                                                                                    
                                                                                                    
                                                                                                    
                                                                                                    
                                                                                                    
                                                                                                    
                                                                                                    
                                                                                                    
                                                                                                    
                                                                                                    
                                                                                                    
                           
<?xpacket end="w"?></metadata>
<defs>
    <style>
      .cls-1, .cls-2 {
        fill: #fff;
      }

      .cls-2 {
        fill-rule: evenodd;
      }
    </style>
  </defs>
  <g id="数据众包">
    <rect id="矩形_1_拷贝" data-name="矩形 1 拷贝" class="cls-1" x="276" y="38" width="3" height="46"/>
    <path id="百度_拷贝_2" data-name="百度 拷贝 2" class="cls-2" d="M317.349,45.959a22.765,22.765,0,0,1-4.292-1.367,69.1,69.1,0,0,1-2.536,11.133,57.744,57.744,0,0,1-5.073,11.914,27.531,27.531,0,0,1,3.317,1.563,35.776,35.776,0,0,0,1.951-4.1,44.612,44.612,0,0,0,2.243,8.2q1.267,3.126,2.634,5.859a21.809,21.809,0,0,1-5.072,4.3,36.97,36.97,0,0,1-6.243,3.32,6.909,6.909,0,0,1,2.731,2.734,65.91,65.91,0,0,0,6.145-3.613,26.426,26.426,0,0,0,4.585-4,31.793,31.793,0,0,0,3.9,4.3,25.843,25.843,0,0,0,4.292,3.125A10.257,10.257,0,0,1,329.054,86a17.813,17.813,0,0,1-4.584-2.637,26.636,26.636,0,0,1-4.39-4.2,34.919,34.919,0,0,0,3.8-11.621,70.556,70.556,0,0,0,1.073-9.863c0.781,0,1.884.067,3.317,0.2V54.358q-2.734.2-4.682,0.2h-8.975q1.171-4.294,1.756-5.957t0.976-2.637h0Zm-18.924,20.9q-2.149-.586-4.292-1.367a17.281,17.281,0,0,1-1.171,3.906q-3.9,0-7.608-.2v3.516q4.485-.192,6.438-0.2a51.7,51.7,0,0,1-3.122,5.859q3.512,0.98,8.975,2.344-3.321,3.712-12.486,5.859a5.741,5.741,0,0,1,2.536,2.93q9.556-3.323,13.461-7.617a22.943,22.943,0,0,1,5.268,2.344,21.531,21.531,0,0,1,1.755-2.93,37.876,37.876,0,0,0-4.877-2.148,34.751,34.751,0,0,0,4.1-9.766h-10.73a11.8,11.8,0,0,1,1.756-2.539h0Zm-2.536-13.281q-6.635,0-9.95-.2V56.9q3.511-.192,7.413-0.2a18.324,18.324,0,0,1-4.487,4.492,18.863,18.863,0,0,1-4.682,2.734,5.644,5.644,0,0,1,2.927,2.539,31.983,31.983,0,0,0,5.072-3.809,21.044,21.044,0,0,0,3.707-4q0,4.1-.195,6.836h3.9q-0.2-3.122-.2-8.789,6.63,0,9.365.2V53.381q-2.734.2-9.365,0.2,0-4.88.2-8.984h-3.9q0.192,4.3.195,8.984h0Zm17.168,6.055,0.78-1.953h7.609a87.89,87.89,0,0,1-.878,8.887,36.174,36.174,0,0,1-2.634,9.082q-3.123-4.491-4.877-16.016h0ZM293.352,76.623q1.172-2.147,2.147-4.1h7.218a20.621,20.621,0,0,1-2.926,5.664q-4.1-.975-6.439-1.562h0Zm14.632-29.883a19.629,19.629,0,0,1-3.316-1.367,33.6,33.6,0,0,1-2.927,6.445,15.554,15.554,0,0,1,3.122,1.172q0.974-1.95,1.561-3.32a21.807,21.807,0,0,1,1.56-2.93h0Zm-5.852,11.328a16.87,16.87,0,0,1-2.146,2.148q1.755,1.955,4.487,5.273,1.362-1.364,2.536-2.344-2.342-2.536-4.877-5.078h0Zm-12.876-12.7a11.321,11.321,0,0,1-2.537,2.148,16.44,16.44,0,0,1,4.1,5.078l2.927-1.758a33.458,33.458,0,0,0-4.487-5.469h0Zm85.1,1.758H350.163q0.192,6.253.195,9.375v7.422a57.341,57.341,0,0,1-.585,8.3,51.278,51.278,0,0,1-1.658,7.52,21.526,21.526,0,0,1-3.414,6.641,13.831,13.831,0,0,1,3.706,1.758,43.979,43.979,0,0,0,3.61-9.473A50.176,50.176,0,0,0,353.48,68.03h9.169V73.3h-8q0.192,2.737.2,4.688v5.664q0,3.319-.2,5.469h3.512v-2.93h12.876v2.734h3.512q-0.2-2.738-.2-5.859V78.186q0-1.172.2-4.883h-8.584V68.03h5.462q3.315,0,5.658.2V64.709q-2.342.2-5.853,0.2h-5.267q0-2.147.195-5.274h-3.707q0.192,3.516.195,5.274h-8.974V59.045h20.679a45.879,45.879,0,0,1-.195-5.078V51.428a39.657,39.657,0,0,1,.195-4.3h0Zm-34.921,7.813q-3.708,0-7.218-.2v3.32q3.512-.192,7.218-0.2v8.984a51.186,51.186,0,0,1-7.8,3.516,21.032,21.032,0,0,1,1.951,3.711,48.956,48.956,0,0,1,5.853-3.711V81.9q0,2.344-.975,2.637a19.092,19.092,0,0,1-4.292.293,19.092,19.092,0,0,1,1.365,4.1,25.574,25.574,0,0,0,5.56-1.367q1.853-.783,1.854-4.492V68.811q2.534-1.561,6.243-3.711a7.715,7.715,0,0,1-.976-2.93q-2.734,1.758-5.267,3.125V57.873q1.947,0,6.048.2v-3.32q-4.1.2-6.048,0.2V49.866q0-2.93.195-5.078h-3.9q0.192,2.344.195,5.078v5.078Zm14.242,1.172V50.061h17.168v6.055H353.675Zm4.487,27.148V76.038h12.876v7.227H358.162Zm22.865-20.508a8.947,8.947,0,0,1,2.926,3.32q11.313-5.466,16.583-15.234,5.656,9.769,17.948,14.258a11.94,11.94,0,0,1,2.732-3.711,29.355,29.355,0,0,1-18.924-14.062l0.975-1.953q-3.123-.586-4.682-0.977a23.574,23.574,0,0,1-6.828,11.523,28.11,28.11,0,0,1-10.73,6.836h0Zm31.019,0.781a44.726,44.726,0,0,1-4.682-.586q0,4.1-.195,7.812a20.346,20.346,0,0,1-2.634,8.3,22.236,22.236,0,0,1-7.316,7.91,8.237,8.237,0,0,1,3.707,2.344,38.082,38.082,0,0,0,8.779-13.086,35.071,35.071,0,0,0,11.12,11.914,13.314,13.314,0,0,1,3.317-3.32q-3.32-1.172-7.706-5.762t-4.78-7.715a20.465,20.465,0,0,1-.195-4.687,25.712,25.712,0,0,1,.585-3.125h0Zm-16.192.781a26.508,26.508,0,0,0-4.487-.977q0,3.712-2.244,10.352a25.946,25.946,0,0,1-8.877,11.914,7.027,7.027,0,0,1,3.707,2.344,38.458,38.458,0,0,0,8.779-11.719q5.071,2.93,6.828,5.078a27.19,27.19,0,0,1,2.732-2.734,75.922,75.922,0,0,0-8.584-5.664,54.008,54.008,0,0,1,2.146-8.594h0Zm48.421-19.141a18.176,18.176,0,0,1-4.682-2.148,47.959,47.959,0,0,1-5.365,10.059,43.152,43.152,0,0,1-8.291,8.691,13.872,13.872,0,0,1,3.316,2.734,60.724,60.724,0,0,0,4.878-4.687V81.7q0,5.859,6.242,5.859,11.313,0.586,23.607,0,3.9,0,5.365-1.172t3.219-7.031a8.323,8.323,0,0,1-4.488-1.953q-0.978,4.5-1.95,5.566a5.633,5.633,0,0,1-3.317,1.465,167.3,167.3,0,0,1-21.265-.2q-3.512-.192-3.512-3.516V73.3H455.2q-0.2-2.536-.195-7.031t0.195-7.031H434.716q2.341-3.122,4.292-6.055h23.411q0,9.375-.39,18.164c-0.263,1.953-.683,3.061-1.268,3.32s-2.634.458-6.146,0.586a12.935,12.935,0,0,1,1.756,4.3,22.273,22.273,0,0,0,7.121-1.66q2.048-1.071,2.243-4.2L466.321,56.7q0.192-4.294.195-6.641H440.959a17.792,17.792,0,0,1,3.316-4.883h0Zm-6.243,24.8V62.561H451.1v7.422H438.032Z" transform="translate(0 -6)"/>
    <path id="百度_拷贝" data-name="百度 拷贝" class="cls-2" d="M170.573,51.038H189.3l-0.78,4.1h-15.8V88.928h34.727q6.827,0.192,6.438-5.664V55.139h-16l0.976-4.1h16.973V44.592H170.573v6.445ZM180.328,61h25.947v7.617H180.328V61Zm24,21.875h-24V75.256h25.947V80.92q0.192,2.344-1.951,1.953h0Zm18.924-37.109V88.538h6.243v-37.3h36.092V45.764H247.635V43.811h-7.219v1.953H223.248Zm10.145,22.461H258.56q4.485,0,4.877-3.906V59.631h2.146V54.163h-2.146V52.4H257v1.758H239.636V52.209H233.2v2.148h-2.146v5.469h2.341v8.4Zm23.8-8.594v3.32q0,1.566-2.341,1.172H239.831V59.631h17.363ZM252.122,74.67l-5.658,3.516-3.121-1.758-2.927-1.758h11.706Zm-20.485.2,9.169,6.641-2.146.977a6.661,6.661,0,0,1-2.731.391h-5.658v5.664h8a13.83,13.83,0,0,0,4.682-1.172l3.707-1.953,4.292,2.148a9.521,9.521,0,0,0,3.9.781h10.535V82.873h-8.194a3.877,3.877,0,0,1-2.731-.586l-1.171-.586,11.9-7.422V69.788H231.442V74.67Z" transform="translate(0 -6)"/>
  </g>
  <g id="组_2" data-name="组 2">
    <path id="形状_1_拷贝" data-name="形状 1 拷贝" class="cls-2" d="M91.056,36.556s1.059-10.613,8.325-11.271c5.774-.5,10.024,5.884,10.467,9.541,0.268,2.373,1.488,13.223-7.485,15.174C93.409,51.949,90.071,41.466,91.056,36.556ZM127.986,18.9c0,7.135-4.005,12.9-8.963,12.9s-8.966-5.769-8.966-12.9S114.072,6,119.023,6,127.986,11.771,127.986,18.9Zm4.914,0.763c0.536-4.968,6.4-12.582,11.107-11.492s8.968,7.371,8.1,12.783c-0.847,5.422-5.106,12.572-11.735,11.7C133.761,31.795,132.262,25.73,132.9,19.662Zm14.743,24.275c0-5.211,1.054-12.58,8.97-12.58s10.029,7.808,10.029,10.4c0,2.609,1.076,13.655-8.755,13.873S147.643,48.91,147.643,43.938ZM107.928,88.57s-8.985.221-11.541-11.264,8.963-17.783,9.823-18.856,6.834-5.2,10.671-11.7c3.854-6.5,15.381-11.7,23.493,1.082,5.987,8.669,16.239,16.694,16.239,16.694s7.678,6.07,2.773,17.771-22.857,5.626-22.857,5.626a29.849,29.849,0,0,0-14.3-.429A49.846,49.846,0,0,1,107.928,88.57Zm12.687-35.23v7.72H114.4s-6.211.51-8.389,7.637a13.607,13.607,0,0,0,.92,8.152,10.254,10.254,0,0,0,7.3,5.088H125.9V53.421Zm-0.087,12.306V77.264h-4.7a4.964,4.964,0,0,1-4.274-3.981,7.759,7.759,0,0,1,.341-4.415,5.534,5.534,0,0,1,3.6-3.222h5.037Zm8.232-3.905V76.762s0.245,3.74,5.447,5.093h13.427V61.741H141.84V76.85h-5.532a2.6,2.6,0,0,1-2.1-1.7v-13.5Z" transform="translate(0 -6)"/>
    <path id="形状_1" data-name="形状 1" class="cls-2" d="M78,89V57H88V89H78Zm0-44H88v8H78V45ZM41,83c-0.232-.626-0.226-1.532,0-5a8.815,8.815,0,0,1,8-8H65V67c0-2.623-4-4-4-4H44V57H64c9.389,1.3,10,9,10,9V89H49A11.4,11.4,0,0,1,41,83Zm9.131-2.483A4.188,4.188,0,0,0,52.5,82.624h12.61V75.747H52.788a4.758,4.758,0,0,0-2.712,2.443A3.006,3.006,0,0,0,50.131,80.518ZM25,89H0V45H23s14.358-.989,15,11c0,0,.913,7.895-5,11a12,12,0,0,1,6,11S39.937,88.951,25,89Zm3-34c-1.054-2.543-4-2-4-2H10V63H24a5.89,5.89,0,0,0,4-3C29.066,58.15,28,55,28,55Zm1,19c-1.047-2.607-3.993-2.7-4-3-0.006-.236-15-0.045-15,0V81l14.915,0.082V81.064C27.619,80.641,28,79,28,79,29.3,77.181,29,74,29,74Z" transform="translate(0 -6)"/>
  </g>
</svg>
